<svg width="400" height="400" viewBox="0 0 400 400" fill="none" xmlns="http://www.w3.org/2000/svg">
  <defs>
    <!-- Glassmorphism blur filter -->
    <filter id="glass-blur" x="-50%" y="-50%" width="200%" height="200%">
      <feGaussianBlur in="SourceGraphic" stdDeviation="8" result="blur"/>
      <feColorMatrix in="blur" type="matrix" values="1 0 0 0 0  0 1 0 0 0  0 0 1 0 0  0 0 0 18 -7" result="goo"/>
      <feBlend in="SourceGraphic" in2="goo" mode="multiply"/>
    </filter>
    
    <!-- Neo-Brutalist shadow -->
    <filter id="brutal-shadow" x="-20%" y="-20%" width="140%" height="140%">
      <feDropShadow dx="6" dy="6" stdDeviation="0" flood-color="#000000" flood-opacity="1"/>
    </filter>
    
    <!-- Gradient for depth -->
    <linearGradient id="gold-gradient" x1="0%" y1="0%" x2="100%" y2="100%">
      <stop offset="0%" style="stop-color:#FFD700;stop-opacity:1" />
      <stop offset="100%" style="stop-color:#D4AF37;stop-opacity:1" />
    </linearGradient>
    
    <!-- Glass overlay gradient -->
    <linearGradient id="glass-shine" x1="0%" y1="0%" x2="100%" y2="100%">
      <stop offset="0%" style="stop-color:#FFFFFF;stop-opacity:0.4" />
      <stop offset="50%" style="stop-color:#FFFFFF;stop-opacity:0.1" />
      <stop offset="100%" style="stop-color:#FFFFFF;stop-opacity:0" />
    </linearGradient>
  </defs>
  
  <!-- Background for visibility (remove when using on dark bg) -->
  <rect width="400" height="400" fill="#0A0A0A" rx="40"/>
  
  <!-- Main Icon Container with Brutalist Shadow -->
  <g transform="translate(200, 180)">
    <!-- Shadow layer -->
    <path d="M-80 -60 L80 -60 L80 60 L20 100 L-80 60 Z" fill="#000000" transform="translate(8, 8)"/>
    
    <!-- Main shape - Infinite canvas/node concept -->
    <path d="M-80 -60 L80 -60 L80 60 L20 100 L-80 60 Z" fill="#FFD700" stroke="#000000" stroke-width="4"/>
    
    <!-- Glassmorphism overlay -->
    <path d="M-80 -60 L80 -60 L80 60 L20 100 L-80 60 Z" fill="url(#glass-shine)" style="mix-blend-mode: overlay;"/>
    
    <!-- Inner network/node lines -->
    <g stroke="#000000" stroke-width="3" stroke-linecap="round">
      <!-- Central node -->
      <circle cx="0" cy="0" r="12" fill="#000000"/>
      <circle cx="0" cy="0" r="8" fill="#FFD700"/>
      
      <!-- Connecting lines to corners -->
      <line x1="0" y1="0" x2="-60" y2="-40"/>
      <line x1="0" y1="0" x2="60" y2="-40"/>
      <line x1="0" y1="0" x2="60" y2="40"/>
      <line x1="0" y1="0" x2="0" y2="80"/>
      <line x1="0" y1="0" x2="-60" y2="40"/>
      
      <!-- Outer nodes -->
      <circle cx="-60" cy="-40" r="6" fill="#000000"/>
      <circle cx="60" cy="-40" r="6" fill="#000000"/>
      <circle cx="60" cy="40" r="6" fill="#000000"/>
      <circle cx="0" cy="80" r="6" fill="#000000"/>
      <circle cx="-60" cy="40" r="6" fill="#000000"/>
      
      <!-- Secondary connections -->
      <line x1="-60" y1="-40" x2="0" y2="80"/>
      <line x1="60" y1="-40" x2="-60" y2="40"/>
      <line x1="60" y1="40" x2="-60" y2="-40"/>
    </g>
    
    <!-- Glass highlight -->
    <ellipse cx="-20" cy="-30" rx="30" ry="20" fill="white" fill-opacity="0.3" filter="url(#glass-blur)"/>
  </g>
  
  <!-- Wordmark -->
  <text x="200" y="340" font-family="Space Grotesk, JetBrains Mono, monospace" font-size="48" font-weight="700" 
        text-anchor="middle" fill="#FFD700" letter-spacing="2">CTXNOTE</text>
  
  <!-- Subtle underline -->
  <rect x="120" y="355" width="160" height="4" fill="#FFD700"/>
</svg>
