<svg width="400" height="400" viewBox="0 0 400 400" fill="none" xmlns="http://www.w3.org/2000/svg">
  <defs>
    <filter id="glass-blur-light" x="-50%" y="-50%" width="200%" height="200%">
      <feGaussianBlur in="SourceGraphic" stdDeviation="8" result="blur"/>
      <feColorMatrix in="blur" type="matrix" values="1 0 0 0 0  0 1 0 0 0  0 0 1 0 0  0 0 0 18 -7" result="goo"/>
      <feBlend in="SourceGraphic" in2="goo" mode="multiply"/>
    </filter>
    
    <filter id="brutal-shadow-light" x="-20%" y="-20%" width="140%" height="140%">
      <feDropShadow dx="6" dy="6" stdDeviation="0" flood-color="#1A1A1A" flood-opacity="1"/>
    </filter>
    
    <linearGradient id="gold-gradient-light" x1="0%" y1="0%" x2="100%" y2="100%">
      <stop offset="0%" style="stop-color:#E6B800;stop-opacity:1" />
      <stop offset="100%" style="stop-color:#BFA030;stop-opacity:1" />
    </linearGradient>
    
    <linearGradient id="glass-shine-light" x1="0%" y1="0%" x2="100%" y2="100%">
      <stop offset="0%" style="stop-color:#FFFFFF;stop-opacity:0.6" />
      <stop offset="50%" style="stop-color:#FFFFFF;stop-opacity:0.2" />
      <stop offset="100%" style="stop-color:#FFFFFF;stop-opacity:0.1" />
    </linearGradient>
  </defs>
  
  <!-- Background for visibility (remove when using on light bg) -->
  <rect width="400" height="400" fill="#F5F5F5" rx="40"/>
  
  <!-- Main Icon Container -->
  <g transform="translate(200, 180)">
    <!-- Shadow layer -->
    <path d="M-80 -60 L80 -60 L80 60 L20 100 L-80 60 Z" fill="#1A1A1A" transform="translate(6, 6)"/>
    
    <!-- Main shape -->
    <path d="M-80 -60 L80 -60 L80 60 L20 100 L-80 60 Z" fill="#E6B800" stroke="#1A1A1A" stroke-width="4"/>
    
    <!-- Glassmorphism overlay -->
    <path d="M-80 -60 L80 -60 L80 60 L20 100 L-80 60 Z" fill="url(#glass-shine-light)" style="mix-blend-mode: overlay;"/>
    
    <!-- Inner network/node lines -->
    <g stroke="#1A1A1A" stroke-width="3" stroke-linecap="round">
      <circle cx="0" cy="0" r="12" fill="#1A1A1A"/>
      <circle cx="0" cy="0" r="8" fill="#E6B800"/>
      
      <line x1="0" y1="0" x2="-60" y2="-40"/>
      <line x1="0" y1="0" x2="60" y2="-40"/>
      <line x1="0" y1="0" x2="60" y2="40"/>
      <line x1="0" y1="0" x2="0" y2="80"/>
      <line x1="0" y1="0" x2="-60" y2="40"/>
      
      <circle cx="-60" cy="-40" r="6" fill="#1A1A1A"/>
      <circle cx="60" cy="-40" r="6" fill="#1A1A1A"/>
      <circle cx="60" cy="40" r="6" fill="#1A1A1A"/>
      <circle cx="0" cy="80" r="6" fill="#1A1A1A"/>
      <circle cx="-60" cy="40" r="6" fill="#1A1A1A"/>
      
      <line x1="-60" y1="-40" x2="0" y2="80"/>
      <line x1="60" y1="-40" x2="-60" y2="40"/>
      <line x1="60" y1="40" x2="-60" y2="-40"/>
    </g>
    
    <ellipse cx="-20" cy="-30" rx="30" ry="20" fill="white" fill-opacity="0.4" filter="url(#glass-blur-light)"/>
  </g>
  
  <!-- Wordmark -->
  <text x="200" y="340" font-family="Space Grotesk, JetBrains Mono, monospace" font-size="48" font-weight="700" 
        text-anchor="middle" fill="#1A1A1A" letter-spacing="2">CTXNOTE</text>
  
  <rect x="120" y="355" width="160" height="4" fill="#E6B800"/>
</svg>
